<mxfile host="app.diagrams.net" modified="2021-12-15T09:16:06.245Z" agent="5.0 (X11)" etag="AmikO2pejeCFwv9VQh8q" version="15.9.6" type="github">
  <diagram id="TLqHFbHVii9wfgOhhn27" name="Page-1">
    <mxGraphModel dx="1350" dy="764" grid="1" gridSize="10" guides="1" tooltips="1" connect="1" arrows="1" fold="1" page="1" pageScale="1" pageWidth="850" pageHeight="1100" math="0" shadow="0">
      <root>
        <mxCell id="0" />
        <mxCell id="1" parent="0" />
        <mxCell id="4cotF8SrasmoBFgPKpjG-1" value="" style="rounded=0;whiteSpace=wrap;html=1;" vertex="1" parent="1">
          <mxGeometry x="80" y="220" width="120" height="60" as="geometry" />
        </mxCell>
      </root>
    </mxGraphModel>
  </diagram>
</mxfile>
